<svg width="635" height="689" viewBox="0 0 635 689" fill="none" xmlns="http://www.w3.org/2000/svg">
<path opacity="0.1" d="M311.598 688.213C483.689 688.213 623.196 683.041 623.196 676.661C623.196 670.281 483.689 665.109 311.598 665.109C139.507 665.109 0 670.281 0 676.661C0 683.041 139.507 688.213 311.598 688.213Z" fill="#077F7B"/>
<path opacity="0.1" d="M229.681 20.9724C249.532 2.57123 280.692 -1.17904 309.055 0.286773C398.143 4.89086 478.562 49.6302 548.124 100.236C573.306 118.555 598.1 138.299 614.446 163.527C647.722 214.883 637.851 286.028 591.581 328.336C575.838 342.73 556.754 353.765 537.162 363.547C502.326 380.94 464.739 394.903 425.202 398.877C397.007 401.711 368.465 399.407 340.435 395.453C262.122 384.405 185.252 359.975 120.824 318.179C92.5658 299.847 65.9312 277.057 54.2837 247.401C42.6363 217.745 50.0905 180.165 78.9447 162.612C90.8786 155.352 105.147 152.073 119.116 148.994C139.678 144.462 160.57 139.995 179.126 130.781C198.292 121.265 220.986 102.863 217.191 81.8001C213.119 59.2003 209.853 39.3521 229.681 20.9724Z" fill="white"/>
<path d="M434.64 260.997C433.283 258.264 426.11 241.287 426.11 241.287L414.092 208.892C414.092 208.892 405.562 195.231 405.562 192.695C405.562 190.158 390.054 180.01 390.054 180.01C390.054 180.01 377.454 176.107 376.485 175.717C375.516 175.326 360.589 170.19 360.589 170.19C360.589 170.19 354.712 162.15 353.874 164.25L353.874 164.255C353.843 164.202 353.812 164.156 353.781 164.101C352.58 161.767 351.82 159.216 351.54 156.584C351.509 156.35 351.481 156.104 351.453 155.86C355.324 153.13 358.497 149.46 360.697 145.167C362.897 140.874 364.058 136.088 364.079 131.223C364.076 129.942 363.993 128.663 363.83 127.393C363.937 127.324 364.049 127.263 364.164 127.21C364.405 127.101 364.344 127.013 364.167 126.92C364.227 126.887 364.288 126.852 364.349 126.825C364.67 126.68 364.456 126.57 364.145 126.44L364.164 126.43C364.601 126.232 364.048 126.101 363.604 125.892C363.58 125.757 363.558 125.622 363.532 125.487C363.63 125.23 363.69 124.959 363.71 124.683C363.75 124.704 363.785 124.726 363.827 124.745C363.935 124.242 363.932 123.72 363.819 123.218C363.791 123.32 363.758 123.42 363.718 123.518C363.746 123.063 363.656 122.609 363.457 122.202C363.259 121.796 362.959 121.453 362.59 121.208C362.568 121.187 362.543 121.166 362.52 121.145L363.343 112.391C375.465 111.795 377.591 90.3418 374.827 89.15C372.062 87.9582 374.827 85.3759 374.827 80.2113C374.827 75.0467 365.682 69.2862 365.682 69.2862C365.682 69.2862 361.854 71.2726 355.899 61.3407C349.944 51.4089 328.039 49.8198 326.551 52.402C325.062 54.9843 315.279 58.3612 302.519 62.1353C289.759 65.9094 292.098 81.6018 294.225 84.9786C295.977 87.7703 297.003 90.9871 297.202 94.3146C297.202 96.3009 301.243 104.644 301.243 104.644C299.969 107.535 303.212 123.372 304.173 127.873C304.158 128.011 304.142 128.149 304.128 128.288C304.12 128.301 304.109 128.313 304.101 128.327C304.056 128.399 304.014 128.475 303.977 128.553C303.771 129.02 303.703 129.539 303.781 130.046C303.711 130.6 303.786 131.164 303.997 131.678C304.07 135.918 305.013 140.093 306.763 143.924C308.513 147.755 311.03 151.152 314.145 153.888C314.16 154.159 314.175 154.432 314.189 154.711C314.368 158.387 314.468 162.735 314.282 166.896C314.273 167.109 314.258 167.317 314.246 167.529C313.543 167.677 312.883 167.995 312.319 168.457C311.756 168.919 311.305 169.513 311.003 170.19C309.801 172.594 302.822 176.302 302.822 176.302C302.822 176.302 290.609 176.887 289.446 179.229C288.283 181.571 270.643 189.377 270.643 189.377C270.643 189.377 261.338 195.036 262.695 201.476C263.404 204.841 261.414 210.069 259.351 214.296C255.038 212.595 250.546 211.43 245.969 210.825L255.852 220.66C255.645 220.996 255.523 221.186 255.523 221.186L249.901 241.872C249.901 241.872 247.963 249.092 246.024 250.849C244.086 252.605 247.769 268.607 247.769 268.607C247.769 268.607 245.636 279.926 243.892 282.853C242.147 285.78 246.606 293.001 246.606 293.001L255.523 314.077L279.172 320.322C279.172 320.322 280.748 320.668 283.295 321.236C283.215 321.739 283.133 322.241 283.049 322.741C281.91 329.455 280.413 335.629 278.591 337.299C274.132 341.398 274.326 359.742 274.326 359.742L274.52 385.696C274.52 385.696 276.071 417.701 275.295 418.872C274.806 419.611 275.788 420.816 278.38 421.899C278.305 422.381 278.233 422.869 278.164 423.368C277.435 428.676 277.11 434.733 278.785 437.411C279.512 438.859 279.91 440.461 279.948 442.094C279.948 444.631 283.631 449.9 283.631 449.9C283.631 449.9 280.723 471.562 285.569 478.977C290.416 486.393 294.486 499.858 292.16 502.981C292.16 502.981 288.089 512.153 290.028 516.251C291.966 520.349 290.028 522.691 287.508 523.666C284.988 524.642 285.205 532.643 285.205 532.643L289.834 570.697C289.834 570.697 292.354 578.503 290.222 581.235C288.089 583.967 288.089 597.628 291.385 602.311C294.68 606.995 286.732 615.581 286.732 615.581C286.732 615.581 281.886 622.802 289.64 625.143C289.64 625.143 291.191 625.534 288.283 628.656C285.375 631.779 284.794 635.681 286.732 637.048C287.134 637.298 287.555 637.516 287.99 637.697C287.918 638.16 287.84 638.639 287.748 639.147C287.004 643.222 285.6 648.53 283.049 651.098C278.105 656.368 273.838 662.282 270.356 668.693C267.696 673.938 266.533 678.848 269.48 681.151C276.458 686.615 285.376 688.372 290.609 686.225C295.843 684.078 303.21 677.443 303.21 677.443L304.954 669.832C304.954 669.832 303.791 665.149 309.607 663.393C315.422 661.636 320.85 655.392 320.85 655.392V645.275C322.258 644.438 323.617 643.516 324.921 642.512C324.921 642.512 327.635 632.559 324.921 629.242C322.207 625.924 321.238 624.753 324.727 622.607C328.216 620.46 328.689 615.776 326.131 611.678C323.564 607.58 319.493 601.531 322.982 592.944C326.472 584.358 327.751 558.013 327.751 558.013C327.751 558.013 326.123 540.059 327.751 535.961C329.379 531.863 325.89 523.666 325.89 523.666C325.89 523.666 327.053 513.519 329.186 508.835C331.318 504.152 333.063 479.368 333.063 479.368C333.063 479.368 336.94 468.83 336.94 462C336.94 455.169 330.93 438.777 339.847 434.484C339.847 434.484 343.724 437.996 342.173 452.047C342.173 452.047 346.632 468.439 346.632 473.513C346.632 478.587 349.927 496.931 349.927 496.931C349.927 496.931 350.315 502.786 351.672 504.932C353.029 507.079 351.672 512.933 351.672 512.933C351.672 512.933 356.712 517.812 355.355 520.934C353.998 524.057 355.588 531.098 355.588 531.098L354.386 574.795C354.386 574.795 350.897 593.53 359.038 604.848C359.038 604.848 356.131 621.436 354.386 622.607C352.641 623.778 360.783 633.925 360.783 633.925C360.783 633.925 358.526 640.499 363.109 640.822V651.684C364.7 654.608 366.883 657.138 369.506 659.099C373.771 662.222 372.026 672.955 372.026 672.955C372.026 672.955 377.454 686.615 391.799 683.688C406.144 680.761 408.082 679.395 407.307 674.516C407.028 672.737 406.408 669.559 405.516 665.953C403.973 659.685 401.608 652.121 398.778 648.39C394.319 642.512 390.636 630.218 390.636 630.218C390.636 630.218 388.891 626.119 390.636 624.753C392.381 623.387 391.605 620.85 391.605 620.85C391.605 620.85 393.303 615.777 391.776 612.654C390.248 609.532 394.707 603.092 394.707 603.092L393.35 573.039L394.707 529.326C394.707 529.326 388.697 522.105 391.217 517.812C393.738 513.519 388.31 507.469 388.31 507.469C388.31 507.469 387.728 507.274 389.279 502.395C390.207 499.52 390.069 496.388 388.891 493.614C388.891 493.614 385.596 481.514 391.411 472.342C391.411 472.342 393.931 460.243 394.707 453.999C395.242 449.658 398.592 433.445 400.584 423.961C400.697 423.425 400.805 422.912 400.908 422.422C403.779 422.585 405.95 422.775 405.95 422.775C405.95 422.775 401.491 390.575 405.95 383.94C410.409 377.305 402.461 326.567 402.461 326.567C402.461 326.567 400.561 317.699 399.39 308.652C399.323 308.136 399.262 307.621 399.201 307.106C402.8 306.807 406.413 306.724 410.021 306.857C419.326 307.442 428.437 303.734 428.63 300.026C428.824 296.318 433.864 281.682 434.64 278.365C435.415 275.047 435.997 263.729 434.64 260.997Z" fill="url(#paint0_linear_600_62)"/>
<path d="M321.529 637.458V655.528C321.529 655.528 316.299 661.745 310.695 663.494C305.091 665.243 306.212 669.906 306.212 669.906L304.531 677.484C304.531 677.484 297.433 684.09 292.39 686.227C287.347 688.364 278.754 686.616 272.03 681.175C269.191 678.883 270.312 673.994 272.874 668.771C276.213 662.411 280.324 656.524 285.105 651.253C287.563 648.696 288.916 643.412 289.633 639.355C290.164 636.316 290.335 633.961 290.335 633.961L321.529 637.458Z" fill="#4C495A"/>
<path opacity="0.1" d="M321.529 650.945V655.531C321.529 655.531 316.299 661.748 310.695 663.497C305.091 665.246 306.212 669.909 306.212 669.909L304.531 677.486C304.531 677.486 297.433 684.092 292.39 686.23C287.347 688.367 278.754 686.618 272.03 681.178C269.191 678.885 270.312 673.997 272.874 668.774C272.755 674.261 274.316 680.424 281.93 680.207C290.147 679.935 298.066 676.94 304.531 671.657C304.531 671.657 304.344 658.834 312.937 655.919C316.077 654.841 318.993 653.153 321.529 650.945Z" fill="black"/>
<path d="M389.893 683.707C376.07 686.621 370.84 673.02 370.84 673.02C370.84 673.02 372.521 662.334 368.412 659.225C365.871 657.254 363.768 654.735 362.248 651.842V633.966L379.059 621.531L388.159 629.909L388.772 630.469C388.772 630.469 392.321 642.71 396.617 648.562C399.344 652.277 401.623 659.808 403.11 666.049C403.969 669.639 404.567 672.802 404.836 674.575C405.583 679.432 403.715 680.792 389.893 683.707Z" fill="#4C495A"/>
<path opacity="0.1" d="M389.893 683.704C376.07 686.618 370.84 673.017 370.84 673.017C370.84 673.017 372.521 662.331 368.412 659.222C365.871 657.251 363.768 654.732 362.248 651.839V644.914C364.915 647.844 369.944 653.518 371.027 655.919C372.521 659.222 372.708 671.269 379.619 673.406C386.53 675.543 399.979 677.486 401.1 672.046C401.566 669.978 402.239 667.967 403.11 666.046C403.969 669.637 404.567 672.8 404.836 674.572C405.583 679.429 403.715 680.789 389.893 683.704Z" fill="black"/>
<path opacity="0.1" d="M290.335 633.961L321.529 637.458V647.01C318.009 649.178 312.966 651.479 310.135 649.116C305.951 645.634 293.51 641.212 289.633 639.355C290.163 636.316 290.335 633.961 290.335 633.961Z" fill="black"/>
<path opacity="0.1" d="M388.772 632.023C384.476 630.469 376.817 637.269 366.731 641.544C365.329 642.231 363.798 642.587 362.248 642.585V633.966L379.059 621.531L388.159 629.909C388.3 630.632 388.505 631.34 388.772 632.023Z" fill="black"/>
<path d="M399.793 418.101C399.793 418.101 399.202 420.961 398.358 425.111C396.438 434.554 393.21 450.696 392.695 455.018C391.948 461.235 389.519 473.281 389.519 473.281C383.916 482.413 387.091 494.46 387.091 494.46C388.227 497.232 388.36 500.338 387.465 503.203C385.97 508.061 386.531 508.255 386.531 508.255C386.531 508.255 391.761 514.278 389.333 518.553C386.904 522.827 392.695 530.016 392.695 530.016L391.387 573.539L392.695 603.461C392.695 603.461 388.399 609.873 389.871 612.982C391.342 616.09 389.706 621.142 389.706 621.142C389.706 621.142 390.453 623.668 388.772 625.028C387.091 626.388 388.772 630.468 388.772 630.468C384.476 628.914 376.818 635.714 366.731 639.989C356.645 644.263 360.007 634.16 360.007 634.16C360.007 634.16 352.162 624.057 353.843 622.891C355.524 621.725 358.326 605.21 358.326 605.21C350.481 593.94 353.843 575.288 353.843 575.288L355.001 531.781C355.001 531.781 353.469 524.77 354.777 521.662C356.084 518.553 351.228 513.695 351.228 513.695C351.228 513.695 352.535 507.867 351.228 505.729C349.92 503.592 349.547 497.763 349.547 497.763C349.547 497.763 346.371 479.499 346.371 474.447C346.371 469.396 342.075 453.075 342.075 453.075C343.57 439.085 339.834 435.588 339.834 435.588C331.242 439.862 337.032 456.183 337.032 462.984C337.032 469.784 333.296 480.276 333.296 480.276C333.296 480.276 331.615 504.952 329.561 509.615C327.506 514.278 326.385 524.382 326.385 524.382C326.385 524.382 329.747 532.542 328.178 536.623C326.609 540.703 328.178 558.578 328.178 558.578C328.178 558.578 326.946 584.808 323.583 593.358C320.221 601.907 324.144 607.93 326.617 612.01C329.082 616.09 328.627 620.754 325.265 622.891C321.902 625.028 322.836 626.194 325.451 629.497C328.066 632.8 325.451 642.709 325.451 642.709C325.451 642.709 314.804 651.453 310.135 647.567C305.465 643.681 290.522 638.629 288.654 637.269C286.786 635.909 287.347 632.023 290.149 628.914C292.95 625.805 291.456 625.417 291.456 625.417C283.985 623.085 288.654 615.896 288.654 615.896C288.654 615.896 296.312 607.347 293.137 602.684C289.962 598.021 289.962 584.42 292.016 581.7C294.071 578.979 291.643 571.208 291.643 571.208L287.182 533.319C287.182 533.319 286.973 525.353 289.401 524.382C291.83 523.41 293.697 521.079 291.83 516.998C289.962 512.918 293.884 503.786 293.884 503.786C296.126 500.677 292.203 487.271 287.533 479.888C282.864 472.504 285.666 450.937 285.666 450.937C285.666 450.937 282.117 445.691 282.117 443.165C282.082 441.544 281.699 439.95 280.996 438.502C279.382 435.837 279.696 429.805 280.398 424.521C281.078 419.407 282.117 414.992 282.117 414.992L399.793 418.101Z" fill="#5F5D7E"/>
<path d="M363.182 197.958L326.385 206.895C326.385 206.895 308.267 190.963 312.75 182.414C314.289 179.476 314.969 174.463 315.2 169.163C315.38 165.02 315.283 160.691 315.111 157.031C314.849 151.738 314.431 147.829 314.431 147.829C314.431 147.829 352.162 125.679 350.854 147.829C350.589 151.517 350.671 155.224 351.101 158.896C351.368 161.509 352.1 164.047 353.26 166.38C355.277 170.119 357.765 170.173 357.765 170.173L363.182 197.958Z" fill="#FDC2CC"/>
<path opacity="0.1" d="M351.101 158.896C345.783 162.864 339.329 164.84 332.793 164.501C326.256 164.162 320.023 161.529 315.111 157.031C314.849 151.738 314.431 147.829 314.431 147.829C314.431 147.829 352.162 125.679 350.854 147.829C350.588 151.517 350.671 155.224 351.101 158.896Z" fill="black"/>
<path d="M334.23 163.764C350.22 163.764 363.182 150.28 363.182 133.647C363.182 117.015 350.22 103.531 334.23 103.531C318.241 103.531 305.278 117.015 305.278 133.647C305.278 150.28 318.241 163.764 334.23 163.764Z" fill="#FDC2CC"/>
<path opacity="0.1" d="M363.182 197.96L326.385 206.898C326.385 206.898 308.267 190.965 312.75 182.416C314.289 179.478 314.969 174.466 315.2 169.165C316.013 173.774 318.392 177.926 321.902 180.862C330.308 186.691 329 193.88 329 193.88L344.13 193.297C343.196 186.885 348.8 183.388 350.668 182.611C352.535 181.833 351.601 178.336 351.601 178.336L353.26 166.383C355.277 170.121 357.765 170.175 357.765 170.175L363.182 197.96Z" fill="black"/>
<path opacity="0.1" d="M399.792 418.101C399.792 418.101 399.202 420.961 398.358 425.111C394.293 424.886 388.921 424.723 386.531 425.29C382.421 426.261 365.984 426.65 365.984 426.65L325.264 428.15V426.844C320.58 426.884 315.903 427.208 311.255 427.816C304.344 428.787 293.51 427.427 286.599 426.261C284.472 425.944 282.39 425.36 280.398 424.521C281.078 419.407 282.116 414.992 282.116 414.992L399.792 418.101Z" fill="black"/>
<path d="M396.617 294.718C396.027 298.347 396.46 304.363 397.207 310.3C398.335 319.308 400.166 328.137 400.166 328.137C400.166 328.137 407.824 378.654 403.528 385.26C399.232 391.867 403.528 423.926 403.528 423.926C403.528 423.926 390.64 422.76 386.53 423.731C382.421 424.703 365.984 425.091 365.984 425.091L325.264 426.591V425.286C320.58 425.325 315.903 425.649 311.255 426.257C304.344 427.229 293.51 425.869 286.599 424.703C279.688 423.537 276.886 421.205 277.633 420.04C278.381 418.874 276.886 387.009 276.886 387.009L276.699 361.168C276.699 361.168 276.513 342.904 280.809 338.823C282.565 337.16 284.007 331.013 285.105 324.329C286.681 314.653 287.533 303.85 287.533 303.85L259.141 224.771L258.581 223.216C258.581 223.216 266.8 210.004 265.492 203.592C264.185 197.18 273.15 191.546 273.15 191.546C273.15 191.546 290.148 183.774 291.269 181.442C292.39 179.111 304.157 178.528 304.157 178.528C304.157 178.528 310.881 174.836 312.04 172.442C312.321 171.774 312.752 171.185 313.297 170.724C313.841 170.263 314.483 169.943 315.17 169.792C315.962 174.458 318.354 178.666 321.902 181.637C330.307 187.465 329 194.654 329 194.654L344.13 194.072C343.196 187.66 348.799 184.162 350.667 183.385C352.535 182.608 351.601 179.111 351.601 179.111L353.349 166.528C354.156 164.437 359.82 172.442 359.82 172.442C359.82 172.442 374.202 177.556 375.136 177.945C376.07 178.333 388.211 182.219 388.211 182.219C388.211 182.219 403.154 192.323 403.154 194.849C403.154 197.375 411.373 210.975 411.373 210.975C411.373 210.975 411.276 211.52 411.097 212.514C409.199 223.224 397.984 286.363 396.617 294.718Z" fill="#FCC827"/>
<path d="M336.845 263.244C336.845 263.244 304.531 254.306 301.356 252.169C298.18 250.032 279.502 262.467 302.29 279.371C302.29 279.371 330.155 285.394 337.609 279.371C345.064 273.347 336.845 263.244 336.845 263.244Z" fill="#FDC2CC"/>
<path opacity="0.1" d="M406.704 210.008L410.626 210.202L422.207 242.456C422.207 242.456 429.118 259.359 430.425 262.08C431.733 264.8 431.173 276.069 430.425 279.372C429.678 282.675 424.822 297.247 424.635 300.939C424.448 304.631 415.669 308.322 406.704 307.74C397.738 307.157 376.818 310.071 376.818 310.071C376.818 310.071 354.476 307.642 340.768 314.929C340.768 314.929 331.989 296.082 332.923 260.914C332.923 260.914 348.426 259.942 352.348 261.497C356.271 263.051 375.323 267.52 377.752 265.188C380.18 262.857 391.2 269.463 391.2 269.463C391.761 268.182 392.051 266.79 392.051 265.383C392.051 263.975 391.761 262.584 391.2 261.302C389.332 256.639 386.157 242.067 390.266 237.404C394.376 232.741 406.704 210.008 406.704 210.008Z" fill="black"/>
<path opacity="0.1" d="M397.207 310.301C387.935 310.954 377.565 312.399 377.565 312.399C377.565 312.399 355.225 309.967 341.515 317.257C341.515 317.257 332.736 298.41 333.67 263.242C333.67 263.242 349.173 262.27 353.096 263.825C357.018 265.379 376.07 269.848 378.499 267.516C380.927 265.185 391.947 271.791 391.947 271.791C392.508 270.51 392.798 269.118 392.798 267.711C392.798 266.303 392.508 264.912 391.947 263.631C390.079 258.967 386.904 244.395 391.013 239.732C395.123 235.069 407.451 212.336 407.451 212.336L411.097 212.515C409.199 223.224 397.984 286.363 396.617 294.718C396.027 298.348 396.46 304.363 397.207 310.301Z" fill="black"/>
<path d="M407.451 210.781L411.373 210.976L422.954 243.229C422.954 243.229 429.865 260.133 431.173 262.853C432.48 265.573 431.92 276.842 431.173 280.146C430.425 283.449 425.569 298.021 425.382 301.713C425.195 305.404 416.416 309.096 407.451 308.513C398.485 307.93 377.565 310.845 377.565 310.845C377.565 310.845 355.223 308.415 341.515 315.702C341.515 315.702 332.736 296.855 333.67 261.687C333.67 261.687 349.173 260.716 353.096 262.27C357.018 263.825 376.07 268.293 378.499 265.962C380.927 263.63 391.947 270.236 391.947 270.236C392.508 268.955 392.798 267.564 392.798 266.156C392.798 264.748 392.508 263.357 391.947 262.076C390.079 257.413 386.904 242.84 391.013 238.177C395.123 233.514 407.451 210.781 407.451 210.781Z" fill="#FCC827"/>
<path d="M367.988 282.147L372.648 285.148L398.621 241.515L393.96 238.513L367.988 282.147Z" fill="#DFE6F5"/>
<path d="M411.939 235.61C416.529 227.899 416.035 218.933 410.836 215.584C405.636 212.235 397.7 215.771 393.11 223.483C388.519 231.194 389.013 240.16 394.213 243.509C399.413 246.858 407.349 243.322 411.939 235.61Z" fill="#DFE6F5"/>
<path opacity="0.1" d="M409.282 233.902C412.577 228.366 412.222 221.931 408.49 219.527C404.758 217.123 399.061 219.661 395.767 225.196C392.472 230.732 392.826 237.167 396.559 239.571C400.291 241.975 405.987 239.437 409.282 233.902Z" fill="black"/>
<path d="M354.713 304.451L359.374 307.453L375.534 280.304L370.874 277.302L354.713 304.451Z" fill="#53526B"/>
<path d="M327.319 306.375L338.713 303.072C338.713 303.072 394.936 304.627 376.07 280.534C376.07 280.534 366.171 270.625 345.437 278.591C324.704 286.557 318.914 287.528 318.914 287.528L327.319 306.375Z" fill="#FDC2CC"/>
<path opacity="0.1" d="M318.913 204.757C320.151 204.757 321.155 203.713 321.155 202.425C321.155 201.138 320.151 200.094 318.913 200.094C317.675 200.094 316.672 201.138 316.672 202.425C316.672 203.713 317.675 204.757 318.913 204.757Z" fill="black"/>
<path opacity="0.1" d="M357.392 203.398C358.63 203.398 359.633 202.354 359.633 201.066C359.633 199.778 358.63 198.734 357.392 198.734C356.154 198.734 355.15 199.778 355.15 201.066C355.15 202.354 356.154 203.398 357.392 203.398Z" fill="black"/>
<path d="M318.913 203.983C320.151 203.983 321.155 202.94 321.155 201.652C321.155 200.364 320.151 199.32 318.913 199.32C317.675 199.32 316.672 200.364 316.672 201.652C316.672 202.94 317.675 203.983 318.913 203.983Z" fill="white"/>
<path opacity="0.1" d="M322.089 237.015C323.327 237.015 324.331 235.971 324.331 234.683C324.331 233.395 323.327 232.352 322.089 232.352C320.851 232.352 319.848 233.395 319.848 234.683C319.848 235.971 320.851 237.015 322.089 237.015Z" fill="black"/>
<path opacity="0.1" d="M358.512 234.679C359.75 234.679 360.754 233.635 360.754 232.347C360.754 231.06 359.75 230.016 358.512 230.016C357.275 230.016 356.271 231.06 356.271 232.347C356.271 233.635 357.275 234.679 358.512 234.679Z" fill="black"/>
<path d="M322.089 236.233C323.327 236.233 324.331 235.19 324.331 233.902C324.331 232.614 323.327 231.57 322.089 231.57C320.851 231.57 319.848 232.614 319.848 233.902C319.848 235.19 320.851 236.233 322.089 236.233Z" fill="white"/>
<path opacity="0.1" d="M357.578 347.194C358.816 347.194 359.82 346.151 359.82 344.863C359.82 343.575 358.816 342.531 357.578 342.531C356.34 342.531 355.337 343.575 355.337 344.863C355.337 346.151 356.34 347.194 357.578 347.194Z" fill="black"/>
<path opacity="0.1" d="M328.079 347.194C329.317 347.194 330.321 346.151 330.321 344.863C330.321 343.575 329.317 342.531 328.079 342.531C326.841 342.531 325.838 343.575 325.838 344.863C325.838 346.151 326.841 347.194 328.079 347.194Z" fill="black"/>
<path d="M357.578 346.413C358.816 346.413 359.82 345.369 359.82 344.082C359.82 342.794 358.816 341.75 357.578 341.75C356.34 341.75 355.337 342.794 355.337 344.082C355.337 345.369 356.34 346.413 357.578 346.413Z" fill="white"/>
<path opacity="0.1" d="M330.321 386.233C331.558 386.233 332.562 385.19 332.562 383.902C332.562 382.614 331.558 381.57 330.321 381.57C329.083 381.57 328.079 382.614 328.079 383.902C328.079 385.19 329.083 386.233 330.321 386.233Z" fill="black"/>
<path opacity="0.1" d="M358.512 383.905C359.75 383.905 360.754 382.861 360.754 381.574C360.754 380.286 359.75 379.242 358.512 379.242C357.275 379.242 356.271 380.286 356.271 381.574C356.271 382.861 357.275 383.905 358.512 383.905Z" fill="black"/>
<path d="M330.321 385.452C331.558 385.452 332.562 384.408 332.562 383.121C332.562 381.833 331.558 380.789 330.321 380.789C329.083 380.789 328.079 381.833 328.079 383.121C328.079 384.408 329.083 385.452 330.321 385.452Z" fill="white"/>
<path d="M328.079 346.413C329.317 346.413 330.321 345.369 330.321 344.082C330.321 342.794 329.317 341.75 328.079 341.75C326.841 341.75 325.838 342.794 325.838 344.082C325.838 345.369 326.841 346.413 328.079 346.413Z" fill="white"/>
<path d="M358.512 383.124C359.75 383.124 360.754 382.08 360.754 380.793C360.754 379.505 359.75 378.461 358.512 378.461C357.275 378.461 356.271 379.505 356.271 380.793C356.271 382.08 357.275 383.124 358.512 383.124Z" fill="white"/>
<path d="M357.392 202.624C358.63 202.624 359.633 201.58 359.633 200.293C359.633 199.005 358.63 197.961 357.392 197.961C356.154 197.961 355.15 199.005 355.15 200.293C355.15 201.58 356.154 202.624 357.392 202.624Z" fill="white"/>
<path d="M358.512 233.905C359.75 233.905 360.754 232.861 360.754 231.574C360.754 230.286 359.75 229.242 358.512 229.242C357.275 229.242 356.271 230.286 356.271 231.574C356.271 232.861 357.275 233.905 358.512 233.905Z" fill="white"/>
<path opacity="0.1" d="M361.875 313.375C361.875 313.375 362.248 366.613 363.369 376.133C363.369 376.133 363.776 315.885 361.875 313.375Z" fill="black"/>
<path opacity="0.1" d="M371.401 338.047C370.631 338.047 386.717 400.416 387.464 404.885C388.212 409.354 375.884 338.047 371.401 338.047Z" fill="black"/>
<path opacity="0.1" d="M384.103 327.945C384.103 328.528 393.068 361.753 397.551 363.502C402.034 365.25 384.103 327.945 384.103 327.945Z" fill="black"/>
<path opacity="0.1" d="M419.405 263.242C419.405 263.242 400.353 264.126 399.792 266.987C399.232 269.848 419.405 263.242 419.405 263.242Z" fill="black"/>
<path opacity="0.1" d="M385.783 516.609C385.783 516.609 372.148 522.633 374.203 523.021C376.257 523.41 385.783 516.609 385.783 516.609Z" fill="black"/>
<path opacity="0.1" d="M357.579 507.67C357.048 506.427 366.731 512.721 366.731 513.499C366.731 514.276 358.326 509.418 357.579 507.67Z" fill="black"/>
<path opacity="0.1" d="M370.28 528.071C370.28 528.071 380.927 527.512 381.674 531.775C382.421 536.037 370.28 528.071 370.28 528.071Z" fill="black"/>
<path opacity="0.1" d="M293.697 528.047C293.697 528.047 305.278 525.691 306.212 528.047C307.146 530.403 293.697 528.047 293.697 528.047Z" fill="black"/>
<path opacity="0.1" d="M297.993 601.32C297.993 601.32 298.753 611.23 295.945 613.561C293.137 615.893 297.993 601.32 297.993 601.32Z" fill="black"/>
<path opacity="0.1" d="M296.579 622.307C300.235 622.696 319.474 619.198 319.287 622.307C319.101 625.416 296.579 622.307 296.579 622.307Z" fill="black"/>
<path opacity="0.1" d="M384.849 610.259C384.849 610.259 378.288 609.21 379.888 613.815L384.849 610.259Z" fill="black"/>
<path opacity="0.1" d="M262.877 222.442H259.328L253.911 243.038C253.911 243.038 252.044 250.227 250.176 251.975C248.308 253.724 251.857 269.656 251.857 269.656C251.857 269.656 249.802 280.926 248.121 283.84C246.44 286.755 250.736 293.944 250.736 293.944L259.328 314.928L282.116 321.145C282.116 321.145 322.276 330.277 324.143 331.637C326.011 332.997 327.692 331.054 329 318.425C330.307 305.796 333.856 281.314 336.658 280.148C336.658 280.148 314.244 282.674 312.376 282.286C310.508 281.897 301.542 282.48 301.542 282.48C301.542 282.48 289.775 281.703 287.907 282.869C286.039 284.034 290.335 277.225 290.335 277.225C291.121 274.107 291.121 270.831 290.335 267.713C289.027 262.467 288.28 203.012 262.877 222.442Z" fill="black"/>
<path opacity="0.1" d="M335.911 282.477C333.109 283.642 329.56 308.124 328.253 320.753C326.945 333.383 325.264 335.325 323.396 333.965C321.88 332.862 295.109 326.629 285.105 324.328C286.681 314.652 287.533 303.849 287.533 303.849L259.142 224.77H262.13C287.533 205.34 288.28 264.795 289.588 270.041C290.374 273.16 290.374 276.436 289.588 279.554C289.588 279.554 285.292 286.362 287.16 285.197C289.028 284.031 300.795 284.808 300.795 284.808C300.795 284.808 309.761 284.225 311.629 284.614C313.497 285.002 335.911 282.477 335.911 282.477Z" fill="black"/>
<path d="M262.13 223.215H258.581L253.164 243.811C253.164 243.811 251.297 251 249.429 252.749C247.561 254.497 251.11 270.43 251.11 270.43C251.11 270.43 249.055 281.699 247.374 284.614C245.693 287.528 249.989 294.717 249.989 294.717L258.581 315.701L281.369 321.919C281.369 321.919 321.529 331.051 323.396 332.411C325.264 333.771 326.945 331.828 328.253 319.199C329.56 306.569 333.109 282.088 335.911 280.922C335.911 280.922 313.497 283.448 311.629 283.059C309.761 282.671 300.795 283.254 300.795 283.254C300.795 283.254 289.028 282.476 287.16 283.642C285.292 284.808 289.588 277.999 289.588 277.999C290.374 274.881 290.374 271.605 289.588 268.487C288.28 263.241 287.533 203.786 262.13 223.215Z" fill="#FCC827"/>
<path opacity="0.1" d="M274.272 293.555C274.272 293.555 263.998 313.762 262.13 311.43C260.263 309.099 274.272 293.555 274.272 293.555Z" fill="black"/>
<path opacity="0.1" d="M263.625 282.047C263.625 282.047 254.098 290.251 258.581 292.388C263.064 294.525 263.625 282.047 263.625 282.047Z" fill="black"/>
<path opacity="0.1" d="M272.59 271.984C273.337 272.179 286.413 274.88 286.599 276.055C286.786 277.23 272.59 271.984 272.59 271.984Z" fill="black"/>
<path opacity="0.1" d="M363.264 129.654C362.858 129.803 362.512 130.089 362.28 130.466C362.049 130.844 361.945 131.291 361.987 131.737C361.225 132.437 360.156 131.613 359.536 130.719C358.909 129.833 358.199 128.737 357.25 128.861C356.799 129.011 356.362 129.201 355.942 129.429C354.448 129.926 353.185 128.1 352.349 126.499C350.892 123.693 349.435 120.89 347.978 118.09C345.056 119.854 341.605 118.004 338.706 116.178C335.807 114.351 332.355 112.494 329.426 114.258C325.13 116.838 324.973 125.442 320.52 127.564C319.085 128.248 317.419 128.1 316.089 129.04C314.774 129.973 314.065 131.768 313.474 133.486C313.256 134.464 312.743 135.343 312.01 135.996C311.544 136.249 311.026 136.38 310.501 136.377C309.18 136.61 307.823 136.412 306.616 135.81C305.983 135.396 305.504 134.77 305.26 134.035C305.015 133.3 305.019 132.5 305.271 131.768C305.306 131.691 305.346 131.615 305.39 131.543C305.869 130.941 306.299 130.299 306.675 129.623C307.124 128.387 306.481 126.95 306.623 125.613C306.855 123.328 309.178 122.123 309.574 119.877C309.739 118.999 309.567 118.059 309.724 117.173C309.746 117.056 309.776 116.942 309.813 116.831L308.446 117.81C309.978 115.952 310.747 113.372 311.868 111.118C313.113 108.65 314.826 106.471 316.904 104.712C318.982 102.952 321.381 101.65 323.957 100.883C328.828 99.406 333.976 99.8101 338.892 101.061C343.567 102.273 348.046 104.192 352.184 106.758C353.663 107.583 354.976 108.693 356.054 110.03C356.958 111.416 357.726 112.892 358.348 114.437C359.798 117.561 363.758 120.452 360.605 120.887C357.982 121.253 360.373 123.165 361.748 124.455C362.058 124.708 362.325 125.012 362.54 125.356C362.768 125.848 362.873 126.392 362.844 126.937C362.815 127.482 362.654 128.01 362.375 128.473C361.845 129.172 363.997 129.312 363.264 129.654Z" fill="black"/>
<path d="M363.264 128.873C362.858 129.022 362.512 129.308 362.28 129.685C362.049 130.063 361.945 130.51 361.987 130.956C361.225 131.655 360.156 130.832 359.536 129.938C358.909 129.052 358.199 127.956 357.25 128.08C356.799 128.23 356.362 128.42 355.942 128.648C354.448 129.145 353.185 127.319 352.349 125.718C350.892 122.912 349.435 120.109 347.978 117.308C345.056 119.073 341.605 117.223 338.706 115.397C335.807 113.57 332.355 111.713 329.426 113.477C325.13 116.057 324.973 124.661 320.52 126.782C319.085 127.466 317.419 127.319 316.089 128.259C314.774 129.192 314.065 130.987 313.474 132.705C313.256 133.682 312.743 134.562 312.01 135.215C311.544 135.468 311.026 135.599 310.501 135.596C309.18 135.829 307.823 135.631 306.616 135.028C305.983 134.615 305.504 133.989 305.26 133.254C305.015 132.519 305.019 131.719 305.271 130.987C305.306 130.909 305.346 130.834 305.39 130.762C305.869 130.16 306.299 129.518 306.675 128.842C307.124 127.606 306.481 126.168 306.623 124.832C306.855 122.547 309.178 121.342 309.574 119.096C309.739 118.218 309.567 117.277 309.724 116.391C309.746 116.275 309.776 116.161 309.813 116.049L308.446 117.029C309.978 115.171 310.747 112.591 311.868 110.337C313.113 107.869 314.826 105.69 316.904 103.931C318.982 102.171 321.381 100.869 323.957 100.101C328.828 98.6247 333.976 99.0288 338.892 100.28C343.567 101.492 348.046 103.411 352.184 105.977C353.663 106.802 354.976 107.912 356.054 109.249C356.958 110.635 357.726 112.111 358.348 113.656C359.798 116.78 363.758 119.671 360.605 120.106C357.982 120.472 360.373 122.383 361.748 123.674C362.058 123.927 362.325 124.231 362.54 124.575C362.768 125.067 362.873 125.61 362.844 126.155C362.815 126.7 362.654 127.229 362.375 127.692C361.845 128.391 363.997 128.531 363.264 128.873Z" fill="#865A61"/>
<path opacity="0.1" d="M361.748 123.674L361.449 126.946C361.449 126.946 330.098 85.6146 305.711 132.285C305.711 132.285 305.592 131.718 305.39 130.762C305.869 130.16 306.299 129.518 306.675 128.842C307.123 127.606 306.481 126.168 306.623 124.832C306.855 122.547 309.178 121.342 309.574 119.096C309.739 118.218 309.567 117.277 309.724 116.391C309.746 116.275 309.776 116.161 309.813 116.049L308.446 117.029C309.978 115.171 310.747 112.591 311.868 110.337C313.113 107.869 314.826 105.69 316.904 103.931C318.982 102.171 321.381 100.869 323.957 100.101C328.828 98.6247 333.976 99.0288 338.892 100.28C343.567 101.492 348.046 103.411 352.184 105.977C353.662 106.802 354.976 107.912 356.054 109.249C356.958 110.635 357.726 112.111 358.348 113.656C359.798 116.78 363.757 119.671 360.605 120.106C357.982 120.472 360.373 122.383 361.748 123.674Z" fill="black"/>
<g opacity="0.1">
<path opacity="0.1" d="M362.521 128.454C362.366 128.634 362.253 128.85 362.192 129.083C362.13 129.316 362.121 129.561 362.165 129.799C361.403 130.498 360.335 129.675 359.714 128.781C359.087 127.895 358.377 126.799 357.428 126.923C356.977 127.073 356.54 127.263 356.121 127.491C354.626 127.988 353.364 126.162 352.527 124.561C351.07 121.755 349.613 118.952 348.156 116.151C345.235 117.916 341.783 116.066 338.884 114.239C335.985 112.413 332.533 110.556 329.604 112.32C325.308 114.9 325.151 123.504 320.698 125.625C319.264 126.309 317.598 126.162 316.268 127.102C314.953 128.035 314.243 129.83 313.653 131.548C313.434 132.525 312.921 133.405 312.188 134.058C311.723 134.311 311.204 134.442 310.679 134.439C309.359 134.672 308.001 134.474 306.794 133.871C306.07 133.372 305.551 132.61 305.338 131.735C305.19 132.431 305.25 133.158 305.51 133.818C305.77 134.477 306.218 135.039 306.794 135.426C308.001 136.028 309.359 136.226 310.679 135.993C311.204 135.996 311.723 135.865 312.188 135.612C312.921 134.959 313.434 134.08 313.653 133.102C314.243 131.384 314.953 129.589 316.268 128.656C317.598 127.716 319.264 127.864 320.698 127.18C325.151 125.058 325.308 116.455 329.604 113.874C332.533 112.11 335.985 113.967 338.884 115.794C341.783 117.62 345.235 119.47 348.156 117.706C349.613 120.504 351.07 123.307 352.527 126.115C353.364 127.716 354.626 129.542 356.121 129.045C356.54 128.817 356.977 128.627 357.428 128.478C358.377 128.353 359.087 129.449 359.714 130.335C360.335 131.229 361.403 132.053 362.165 131.353C362.124 130.907 362.227 130.46 362.458 130.082C362.69 129.705 363.037 129.419 363.443 129.27C364.025 128.998 362.786 128.853 362.521 128.454Z" fill="black"/>
<path opacity="0.1" d="M360.077 120.691C360.303 120.596 360.541 120.534 360.783 120.506C362.173 120.314 362.179 119.644 361.628 118.688C361.367 118.834 361.079 118.924 360.783 118.951C359.283 119.16 359.425 119.876 360.077 120.691Z" fill="black"/>
<path opacity="0.1" d="M362.94 127.199C363.044 126.698 363.041 126.18 362.932 125.68C362.865 125.99 362.736 126.281 362.553 126.535C362.319 126.844 362.608 127.043 362.94 127.199Z" fill="black"/>
<path opacity="0.1" d="M306.844 124.961C306.828 125.05 306.811 125.138 306.801 125.23C306.771 125.93 306.82 126.631 306.946 127.319C307.034 126.532 307 125.736 306.844 124.961Z" fill="black"/>
<path opacity="0.1" d="M309.878 115.477C309.526 116.169 309.106 116.822 308.625 117.425L309.83 116.561C309.825 116.199 309.84 115.837 309.878 115.477Z" fill="black"/>
</g>
<path d="M305.71 131.51C305.71 131.51 301.202 110.547 302.636 107.185C302.636 107.185 298.743 98.8782 298.743 96.9005C298.554 93.6003 297.567 90.4031 295.874 87.6052C293.825 84.2431 291.571 68.6192 303.866 64.8615C316.161 61.1038 325.587 57.7417 327.022 55.1707C328.456 52.5997 349.563 54.1818 355.301 64.0704C361.039 73.959 364.727 71.9813 364.727 71.9813C364.727 71.9813 373.539 77.7166 373.539 82.8587C373.539 88.0008 370.875 90.5718 373.539 91.7584C376.203 92.9451 374.154 114.304 362.473 114.898L361.449 126.171C361.449 126.171 330.096 84.8364 305.71 131.51Z" fill="#FCC827"/>
<path opacity="0.1" d="M307.052 68.9453C307.052 68.9453 304.344 85.4606 309.294 90.9981L307.052 68.9453Z" fill="black"/>
<path opacity="0.1" d="M319.754 65.1562C319.754 65.1562 312.843 82.8373 314.524 86.2375L319.754 65.1562Z" fill="black"/>
<path opacity="0.1" d="M325.731 59.5234C325.731 59.5234 321.062 82.5477 323.303 84.3935L325.731 59.5234Z" fill="black"/>
<path opacity="0.1" d="M333.763 65.7422C333.763 65.7422 327.973 80.5088 330.308 82.5489L333.763 65.7422Z" fill="black"/>
<path opacity="0.1" d="M344.69 67.4844C344.69 67.4844 337.872 79.5308 339.273 81.6681L344.69 67.4844Z" fill="black"/>
<path opacity="0.1" d="M358.699 79.2422C358.699 79.2422 351.415 81.2823 352.909 83.711L358.699 79.2422Z" fill="black"/>
<path opacity="0.1" d="M365.611 91.7734C365.611 91.7734 359.073 95.0765 360.287 96.8252L365.611 91.7734Z" fill="black"/>
<path opacity="0.1" d="M302.636 107.184C302.636 107.184 344.393 89.5414 362.473 114.898C362.473 114.898 340.527 95.4879 302.636 107.184Z" fill="black"/>
<path d="M287.546 252.154L293.365 246.031L309.815 262.946L303.997 269.069L288.868 253.513L287.546 252.154Z" fill="#53526B"/>
<path d="M249.376 212.898C249.376 212.898 274.842 215.153 298.543 242.903L288.664 253.298L249.376 212.898Z" fill="#DFE6F5"/>
<defs>
<linearGradient id="paint0_linear_600_62" x1="339.47" y1="687.115" x2="339.47" y2="51.3047" gradientUnits="userSpaceOnUse">
<stop stop-color="#808080" stop-opacity="0.25"/>
<stop offset="0.53514" stop-color="#808080" stop-opacity="0.12"/>
<stop offset="1" stop-color="#808080" stop-opacity="0.1"/>
</linearGradient>
</defs>
</svg>
