<svg width="586" height="401" viewBox="0 0 586 401" fill="none" xmlns="http://www.w3.org/2000/svg">
<path opacity="0.1" d="M180.66 20.9724C200.511 2.57123 231.671 -1.17904 260.034 0.286773C349.122 4.89086 429.542 49.6302 499.103 100.236C524.286 118.555 549.079 138.299 565.426 163.527C598.701 214.883 588.831 286.028 542.56 328.336C526.818 342.73 507.733 353.765 488.141 363.547C453.306 380.94 415.719 394.903 376.181 398.877C347.986 401.711 319.445 399.407 291.415 395.453C213.102 384.405 136.232 359.976 71.8033 318.179C43.5453 299.847 16.9107 277.057 5.26321 247.401C-6.38423 217.745 1.06997 180.165 29.9242 162.612C41.8581 155.352 56.1264 152.073 70.0958 148.994C90.6579 144.462 111.55 139.995 130.106 130.781C149.271 121.265 171.965 102.863 168.171 81.8001C164.099 59.2003 160.832 39.3521 180.66 20.9724Z" fill="#F54749"/>
</svg>
